HIERARCHY
ROOT Hips
{
	OFFSET 0.00000 0.00000 0.00000
	CHANNELS 6 Xposition Yposition Zposition Zrotation Yrotation Xrotation 
	JOINT LHipJoint
	{
		OFFSET 0 0 0
		CHANNELS 3 Zrotation Yrotation Xrotation
		JOINT LeftHip
		{
			OFFSET 1.29432 -1.88279 0.59910
			CHANNELS 3 Zrotation Yrotation Xrotation
			JOINT LeftKnee
			{
				OFFSET 2.63039 -7.22694 0.00000
				CHANNELS 3 Zrotation Yrotation Xrotation
				JOINT LeftAnkle
				{
					OFFSET 2.70674 -7.43672 0.00000
					CHANNELS 3 Zrotation Yrotation Xrotation
					JOINT LeftToe
					{
						OFFSET 0.15066 -0.41394 2.09027
						CHANNELS 3 Zrotation Yrotation Xrotation
						End Site
						{
							OFFSET 0.00000 -0.00000 1.07518
						}
					}
				}
			}
		}
	}
	JOINT RHipJoint
	{
		OFFSET 0 0 0
		CHANNELS 3 Zrotation Yrotation Xrotation
		JOINT RightHip
		{
			OFFSET -1.37068 -1.88279 0.59910
			CHANNELS 3 Zrotation Yrotation Xrotation
			JOINT RightKnee
			{
				OFFSET -2.57023 -7.06166 0.00000
				CHANNELS 3 Zrotation Yrotation Xrotation
				JOINT RightAnkle
				{
					OFFSET -2.76461 -7.59570 0.00000
					CHANNELS 3 Zrotation Yrotation Xrotation
					JOINT RightToe
					{
						OFFSET -0.24175 -0.64785 2.19719
						CHANNELS 3 Zrotation Yrotation Xrotation
						End Site
						{
							OFFSET -0.00000 -0.00000 1.14803
						}
					}
				}
			}
		}
	}
	JOINT lowerback
	{
		OFFSET 0 0 0
		CHANNELS 3 Zrotation Yrotation Xrotation
		JOINT Chest
		{
			OFFSET -0.03138 2.03983 -0.23106
			CHANNELS 3 Zrotation Yrotation Xrotation
			JOINT Chest2
			{
				OFFSET -0.00325 2.06238 -0.06878
				CHANNELS 3 Zrotation Yrotation Xrotation
				JOINT lowerneck
				{
					OFFSET 0 0 0
					CHANNELS 3 Zrotation Yrotation Xrotation
					JOINT Neck
					{
						OFFSET -0.00002 1.75318 0.18090
						CHANNELS 3 Zrotation Yrotation Xrotation
						JOINT Head
						{
							OFFSET 0.08806 1.75856 -0.25387
							CHANNELS 3 Zrotation Yrotation Xrotation
							End Site
							{
								OFFSET 0.02554 1.78597 -0.10684
							}
						}
					}
				}
				JOINT LeftCollar
				{
					OFFSET 0 0 0
					CHANNELS 3 Zrotation Yrotation Xrotation
					JOINT LeftShoulder
					{
						OFFSET 3.09657 1.33597 -0.04414
CHANNELS 3 Zrotation Xrotation Yrotation
						JOINT LeftElbow
						{
OFFSET 0 -5.342980 -0.000000
CHANNELS 3 Zrotation Xrotation Yrotation
							JOINT LeftWrist
							{
OFFSET 0 -3.672620 -0.000000
CHANNELS 3 Zrotation Xrotation Yrotation
								JOINT lhand
								{
									OFFSET 0 0 0
CHANNELS 3 Zrotation Xrotation Yrotation
									JOINT LFingers
									{
OFFSET 0 -0.599300 -0.000000
CHANNELS 3 Zrotation Xrotation Yrotation
										End Site
										{
OFFSET 0 -0.483170 -0.000000
										}
									}
								}
								JOINT LThumb
								{
OFFSET 0 0.000000 0.000000
CHANNELS 3 Zrotation Xrotation Yrotation
									End Site
									{
OFFSET 0 -0.490550 0.490550
									}
								}
							}
						}
					}
				}
				JOINT RightCollar
				{
					OFFSET 0 0 0
					CHANNELS 3 Zrotation Yrotation Xrotation
					JOINT RightShoulder
					{
						OFFSET -3.16460 1.32273 -0.23382
CHANNELS 3 Zrotation Xrotation Yrotation
						JOINT RightElbow
						{
OFFSET 0 -5.549670 0.033480
CHANNELS 3 Zrotation Xrotation Yrotation
							JOINT RightWrist
							{
OFFSET 0 -3.694010 0.000000
CHANNELS 3 Zrotation Xrotation Yrotation
								JOINT rhand
								{
									OFFSET 0 0 0
CHANNELS 3 Zrotation Xrotation Yrotation
									JOINT RFingers
									{
OFFSET 0 -0.638110 0.000000
CHANNELS 3 Zrotation Xrotation Yrotation
										End Site
										{
OFFSET 0 -0.514460 0.000000
										}
									}
								}
								JOINT RThumb
								{
OFFSET 0 0.000000 0.000000
CHANNELS 3 Zrotation Xrotation Yrotation
									End Site
									{
OFFSET 0 -0.522320 0.522320
									}
								}
							}
						}
					}
				}
			}
		}
	}
}
MOTION
Frames: 4
Frame Time: 0.008333333333333333
7.538974 18.353001 -9.944952 4.522848 -3.624799 0.923501 0.000000 0.000000 0.000000 -19.401470 -6.059587 -6.289194 0.811962 5.750181 16.061248 0.298796 1.202106 -10.836706 0.011673 -0.697216 -1.915987 0.000000 0.000000 0.000000 15.884355 7.528047 -3.290575 -1.215156 -6.992642 19.693501 -0.382342 -10.280382 -19.565178 -0.111399 -2.152092 5.926177 -1.853727 0.436205 -2.371102 -2.041475 0.692164 1.119524 -1.026003 0.332242 2.482614 -1.914420 -4.204025 -8.943533 13.139274 -10.726061 35.579724 4.167532 -3.313022 14.754566 0.000000 0.000000 0.000000 0.184781 0.459070 2.951202 12.197944 -20.100675 2.169877 16.080014 33.345944 -28.289626 0.000000 0.000000 0.000000 -7.125000 0.000000 0.000000 -16.355609 58.479189 5.486385 0.000000 0.000000 0.000000 -0.268817 3.798125 2.304856 -11.819107 -19.532736 -2.041411 -27.584501 17.698959 -23.152486 0.000000 0.000000 0.000000 7.125000 0.000000 0.000000 0.935524 4.227250 0.864293
7.538722 18.353203 -9.945456 4.540545 -3.642798 0.905704 0.000000 0.000000 0.000000 -19.424410 -6.128961 -6.227382 0.808887 5.739543 16.030544 0.291788 1.469318 -10.850319 0.011219 -0.682847 -1.876560 0.000000 0.000000 0.000000 15.873465 7.569540 -3.266324 -1.216669 -6.996726 19.705702 -0.380426 -10.306347 -19.571934 -0.111197 -2.150075 5.920530 -1.896582 0.425214 -2.347507 -2.035425 0.677493 1.101172 -0.996610 0.324327 2.449843 -1.840659 -4.173876 -8.939399 13.054421 -10.668384 35.591572 4.126997 -3.288065 14.740298 0.000000 0.000000 0.000000 0.156144 0.464011 2.837007 12.287031 -20.233626 2.200632 15.878042 33.193431 -28.459079 0.000000 0.000000 0.000000 -7.125000 0.000000 0.000000 -16.677826 58.597367 5.645956 0.000000 0.000000 0.000000 -0.248650 3.852374 2.505567 -11.844921 -19.571608 -2.050032 -27.590702 17.586276 -22.955858 0.000000 0.000000 0.000000 7.125000 0.000000 0.000000 0.904971 4.438751 0.832480
7.538782 18.353613 -9.946559 4.537433 -3.644911 0.898376 0.000000 0.000000 0.000000 -19.421306 -6.164662 -6.189401 0.804718 5.725076 15.988745 0.283348 1.696475 -10.822653 0.011391 -0.687906 -1.890471 0.000000 0.000000 0.000000 15.882550 7.591840 -3.268403 -1.219275 -7.003883 19.726940 -0.375958 -10.339917 -19.559183 -0.110241 -2.140714 5.894621 -1.917352 0.412634 -2.346960 -2.025598 0.661024 1.096285 -0.975603 0.315708 2.444079 -1.802396 -4.157086 -8.933259 13.010353 -10.632218 35.571439 4.105317 -3.273708 14.718399 0.000000 0.000000 0.000000 0.121413 0.417490 2.776669 12.354242 -20.333788 2.223886 15.656225 33.058394 -28.563007 0.000000 0.000000 0.000000 -7.125000 0.000000 0.000000 -16.978818 58.647911 5.771593 0.000000 0.000000 0.000000 -0.213404 3.901102 2.658854 -11.894095 -19.645534 -2.066571 -27.597997 17.568261 -22.737406 0.000000 0.000000 0.000000 7.125000 0.000000 0.000000 0.871032 4.673821 0.797437
7.539135 18.354218 -9.948223 4.514846 -3.632155 0.900847 0.000000 0.000000 0.000000 -19.393829 -6.168846 -6.173721 0.799525 5.707027 15.936563 0.273567 1.886145 -10.756354 0.012147 -0.711148 -1.954299 0.000000 0.000000 0.000000 15.910330 7.596176 -3.295124 -1.222905 -7.013916 19.756635 -0.369101 -10.380604 -19.528177 -0.108577 -2.124480 5.849750 -1.917453 0.398567 -2.367984 -2.012238 0.642874 1.103998 -0.962444 0.306431 2.463590 -1.797354 -4.152801 -8.925243 13.004454 -10.616185 35.521374 4.101283 -3.269271 14.689359 0.000000 0.000000 0.000000 0.080978 0.322807 2.766737 12.400979 -20.403263 2.240120 15.415835 32.939711 -28.605609 0.000000 0.000000 0.000000 -7.125000 0.000000 0.000000 -17.259945 58.635155 5.865470 0.000000 0.000000 0.000000 -0.164045 3.944662 2.767755 -11.965133 -19.752267 -2.090519 -27.606316 17.638845 -22.498529 0.000000 0.000000 0.000000 7.125000 0.000000 0.000000 0.833925 4.930950 0.759372
